<svg xmlns="http://www.w3.org/2000/svg" data-name="Ebene 2" viewBox="0 0 95 118.75" x="0px" y="0px"><title>facility-icon</title><path d="M72.44,42.1H57.14L46.54,24a1.4,1.4,0,0,0-1.21-.69H40.17A1.4,1.4,0,0,0,38.81,25L43.35,42.1H32.43L28,36.27a1.4,1.4,0,0,0-1.11-.55H23.47a1.4,1.4,0,0,0-1.36,1.75l1.46,5.72a5.76,5.76,0,0,0,0,9.37l-1.46,5.72A1.4,1.4,0,0,0,23.47,60h3.39A1.4,1.4,0,0,0,28,59.48l4.46-5.83H43.35L38.81,70.72a1.4,1.4,0,0,0,1.35,1.76h5.17a1.4,1.4,0,0,0,1.21-.69L57.14,53.65h15.3A5.78,5.78,0,0,0,72.44,42.1ZM42,26.07h2.54l9.36,16H46.24Zm-15.8,16-0.91-3.57h0.9l2.74,3.57H26.18Zm0,15.13h-0.9l0.91-3.57h2.72ZM44.53,69.68H42l4.26-16h7.65ZM72.44,50.85H26.94a3,3,0,0,1,0-5.95h45.5A3,3,0,0,1,72.44,50.85Z"/><text x="0" y="110" fill="#000000" font-size="5px" font-weight="bold" font-family="'Helvetica Neue', Helvetica, Arial-Unicode, Arial, Sans-serif">Created by Augsten Grafik</text><text x="0" y="115" fill="#000000" font-size="5px" font-weight="bold" font-family="'Helvetica Neue', Helvetica, Arial-Unicode, Arial, Sans-serif">from the Noun Project</text></svg>