<?xml version="1.0" encoding="utf-8"?>
<!-- Generator: Adobe Illustrator 17.0.0, SVG Export Plug-In . SVG Version: 6.00 Build 0)  -->
<!DOCTYPE svg PUBLIC "-//W3C//DTD SVG 1.1//EN" "http://www.w3.org/Graphics/SVG/1.1/DTD/svg11.dtd">
<svg version="1.1" id="Layer_1" xmlns="http://www.w3.org/2000/svg" xmlns:xlink="http://www.w3.org/1999/xlink" x="0px" y="0px"
	 width="927px" height="277px" viewBox="0 0 927 277" enable-background="new 0 0 927 277" xml:space="preserve">
<g>
	<g>
		<path fill="#999999" d="M515.96,216.123h-28.816v25.106h33.731v7.421H477.65v-70.163h42.694v7.47h-33.201v22.697h28.816
			L515.96,216.123L515.96,216.123z"/>
		<path fill="#999999" d="M539.283,196.511l0.675,6.843c1.702-2.474,3.862-4.394,6.481-5.759c2.618-1.365,5.662-2.048,9.132-2.048
			c3.47,0,6.449,0.803,8.938,2.409c2.489,1.606,4.361,4.017,5.614,7.229c1.67-2.988,3.847-5.341,6.529-7.06s5.823-2.578,9.421-2.578
			c5.301,0,9.493,1.823,12.577,5.469c3.084,3.646,4.626,9.132,4.626,16.457v31.178h-9.493v-31.274c0-5.14-0.884-8.778-2.65-10.915
			c-1.767-2.136-4.401-3.204-7.902-3.204c-3.245,0-5.872,1.125-7.879,3.373c-2.008,2.249-3.188,5.092-3.542,8.529v0.386v33.105
			h-9.541v-31.274c0-4.883-0.908-8.457-2.723-10.722c-1.815-2.266-4.426-3.397-7.831-3.397c-2.892,0-5.269,0.595-7.132,1.783
			c-1.863,1.188-3.293,2.859-4.289,5.012v38.599h-9.493v-52.14L539.283,196.511L539.283,196.511z"/>
		<path fill="#999999" d="M661.49,224.556c0,7.518-1.8,13.582-5.397,18.191c-3.599,4.61-8.562,6.915-14.891,6.915
			c-3.213,0-6.031-0.538-8.457-1.614s-4.489-2.69-6.192-4.843v25.492h-9.493v-72.186h7.276l1.494,6.746
			c1.702-2.506,3.823-4.417,6.361-5.734c2.537-1.317,5.493-1.976,8.866-1.976c6.457,0,11.477,2.562,15.06,7.686
			c3.581,5.125,5.373,11.896,5.373,20.312L661.49,224.556L661.49,224.556z M651.997,223.544c0-5.91-1.165-10.77-3.494-14.577
			c-2.329-3.807-5.759-5.71-10.288-5.71c-2.731,0-5.06,0.619-6.987,1.855c-1.927,1.236-3.486,2.932-4.675,5.084v25.202
			c1.188,2.152,2.747,3.831,4.675,5.036c1.928,1.204,4.289,1.807,7.084,1.807c4.497,0,7.902-1.646,10.216-4.939
			c2.312-3.292,3.47-7.541,3.47-12.746L651.997,223.544L651.997,223.544z"/>
		<path fill="#999999" d="M697.823,204.896l-4.867-0.289c-2.506,0-4.618,0.595-6.337,1.782c-1.719,1.189-3.044,2.86-3.976,5.012
			v37.25h-9.493v-52.14h8.481l0.916,7.613c1.477-2.698,3.301-4.802,5.469-6.312c2.169-1.51,4.666-2.265,7.493-2.265
			c0.707,0,1.382,0.056,2.024,0.168c0.643,0.113,1.172,0.233,1.59,0.361L697.823,204.896z"/>
		<path fill="#999999" d="M728.375,249.662c-7.485,0-13.324-2.393-17.517-7.18s-6.289-11.084-6.289-18.89v-2.121
			c0-7.484,2.161-13.677,6.481-18.576c4.32-4.898,9.598-7.349,15.83-7.349c6.971,0,12.199,2.168,15.686,6.505
			c3.485,4.337,5.229,10.104,5.229,17.3v5.012h-33.347l-0.145,0.241c0,5.236,1.156,9.485,3.47,12.746s5.847,4.891,10.602,4.891
			c3.212,0,6.031-0.458,8.457-1.373c2.425-0.916,4.506-2.176,6.24-3.783l3.711,6.168c-1.863,1.8-4.321,3.317-7.373,4.554
			C736.357,249.043,732.68,249.662,728.375,249.662z M726.881,203.016c-3.309,0-6.048,1.277-8.216,3.831
			c-2.169,2.554-3.494,5.823-3.976,9.807l0.097,0.241h23.516v-0.771c0-3.79-0.932-6.923-2.795-9.396
			C733.644,204.255,730.768,203.016,726.881,203.016z"/>
		<path fill="#999999" d="M788.755,234.628c0-2.088-0.795-3.791-2.385-5.108c-1.591-1.317-4.603-2.474-9.035-3.47
			c-6.137-1.316-10.851-3.164-14.144-5.542c-3.294-2.377-4.939-5.557-4.939-9.541c0-4.24,1.807-7.87,5.421-10.891
			c3.614-3.02,8.296-4.529,14.047-4.529c5.911,0,10.698,1.606,14.36,4.818c3.662,3.213,5.413,6.956,5.253,11.229l-0.097,0.289h-9.06
			c0-2.249-0.987-4.289-2.963-6.12c-1.977-1.831-4.475-2.747-7.494-2.747c-3.341,0-5.839,0.755-7.493,2.265
			c-1.654,1.511-2.481,3.31-2.481,5.397c0,2.057,0.715,3.646,2.145,4.771c1.429,1.125,4.377,2.153,8.843,3.084
			c6.393,1.35,11.243,3.262,14.553,5.734c3.309,2.475,4.963,5.703,4.963,9.687c0,4.626-1.871,8.401-5.613,11.324
			c-3.743,2.924-8.635,4.385-14.674,4.385c-6.649,0-11.887-1.687-15.709-5.06c-3.824-3.373-5.639-7.308-5.445-11.807l0.096-0.289
			h9.06c0.16,3.374,1.413,5.84,3.759,7.397c2.345,1.559,5.092,2.337,8.24,2.337c3.373,0,6.016-0.715,7.927-2.145
			C787.799,238.668,788.755,236.844,788.755,234.628z"/>
		<path fill="#999999" d="M842.101,248.651c-0.321-1.573-0.571-2.964-0.747-4.168c-0.177-1.205-0.281-2.417-0.313-3.639
			c-1.767,2.506-4.071,4.603-6.915,6.289c-2.843,1.687-5.903,2.529-9.18,2.529c-5.43,0-9.565-1.389-12.408-4.168
			c-2.844-2.778-4.265-6.609-4.265-11.493c0-4.979,2.016-8.874,6.047-11.686c4.031-2.811,9.501-4.217,16.408-4.217h10.312v-5.156
			c0-3.052-0.932-5.469-2.795-7.252c-1.863-1.783-4.498-2.675-7.902-2.675c-3.084,0-5.574,0.771-7.47,2.313
			c-1.896,1.542-2.843,3.39-2.843,5.541l-9.012,0.097l-0.096-0.289c-0.226-3.79,1.549-7.26,5.324-10.409
			c3.774-3.147,8.65-4.722,14.625-4.722c5.911,0,10.666,1.502,14.265,4.505c3.598,3.005,5.396,7.333,5.396,12.987v25.106
			c0,1.863,0.097,3.662,0.289,5.396c0.193,1.735,0.546,3.438,1.061,5.108h-9.781V248.651z M826.343,241.711
			c3.438,0,6.537-0.883,9.301-2.65c2.762-1.766,4.561-3.79,5.396-6.071v-8.481h-10.649c-3.823,0-6.884,0.964-9.18,2.892
			c-2.298,1.928-3.445,4.192-3.445,6.794c0,2.313,0.723,4.145,2.168,5.494C821.379,241.036,823.516,241.711,826.343,241.711z"/>
		<path fill="#999999" d="M894.626,234.628c0-2.088-0.795-3.791-2.385-5.108c-1.591-1.317-4.603-2.474-9.035-3.47
			c-6.137-1.316-10.851-3.164-14.144-5.542c-3.294-2.377-4.939-5.557-4.939-9.541c0-4.24,1.807-7.87,5.421-10.891
			c3.614-3.02,8.296-4.529,14.047-4.529c5.911,0,10.698,1.606,14.36,4.818c3.662,3.213,5.413,6.956,5.253,11.229l-0.097,0.289h-9.06
			c0-2.249-0.987-4.289-2.963-6.12c-1.977-1.831-4.475-2.747-7.494-2.747c-3.341,0-5.839,0.755-7.493,2.265
			c-1.654,1.511-2.481,3.31-2.481,5.397c0,2.057,0.715,3.646,2.145,4.771c1.429,1.125,4.377,2.153,8.843,3.084
			c6.393,1.35,11.243,3.262,14.553,5.734c3.309,2.475,4.963,5.703,4.963,9.687c0,4.626-1.871,8.401-5.613,11.324
			c-3.743,2.924-8.635,4.385-14.674,4.385c-6.649,0-11.887-1.687-15.709-5.06c-3.824-3.373-5.639-7.308-5.445-11.807l0.096-0.289
			h9.06c0.16,3.374,1.413,5.84,3.759,7.397c2.345,1.559,5.092,2.337,8.24,2.337c3.373,0,6.016-0.715,7.927-2.145
			C893.67,238.668,894.626,236.844,894.626,234.628z"/>
	</g>
	<path d="M238.784,162.98c0,3.129,0.426,5.027,1.278,5.703c0.858,0.676,3.263,1.015,7.216,1.015h3.645
		c24.986,0,37.479-8.67,37.479-26.014c0-18.483-11.232-27.722-33.703-27.722c-6.025,0-10.068,0.571-12.14,1.709
		c-2.519,1.419-3.774,4.369-3.774,8.848L238.784,162.98L238.784,162.98z M287.806,171.183c24.127,3.982,36.182,16.47,36.182,37.458
		c0,12.021-4.777,21.684-14.339,28.973c-9.555,7.297-21.966,10.938-37.229,10.938c-5.559,0-47.756,0.207-58.863,0.207V108.158
		c7.402,0,25.257,0.707,34.843,0.595c51.519-0.595,66.488,11.205,66.488,33.619C314.887,156.386,305.858,165.99,287.806,171.183
		 M242.284,176.687c-2.336,0-3.5,0.928-3.5,2.775v44.8c0,10.952,7.447,16.424,22.349,16.424c11.845,0,20.862-3.303,27.062-9.919
		c5.473-5.829,8.209-13.616,8.209-23.36c0-9.527-3.186-17.029-9.557-22.506c-6.376-5.478-15.529-8.214-27.464-8.214
		C259.383,176.687,242.284,176.687,242.284,176.687z"/>
	<path d="M382.518,158.632c6.46,0,12.624,0.821,18.483,2.471c7.818,2.228,11.729,5.367,11.729,9.435
		c0,10.539-2.341,15.813-7.012,15.813c-2.291,0-4.624-1.909-7.004-5.724c-0.256-0.443-0.682-1.203-1.271-2.285
		c-5.69-9.785-11.551-14.678-17.586-14.678c-9.169,0-16.351,4.932-21.526,14.797c-3.906,7.523-5.863,15.302-5.863,23.328
		c0,9.988,2.592,18.492,7.771,25.51c6.455,8.721,15.884,13.087,28.287,13.087c3.565,0,8.448-1.356,14.646-4.081
		c6.201-2.718,8.879-4.08,8.029-4.08c2.293,0,3.438,0.854,3.438,2.553c0,4.353-4.798,8.293-14.401,11.82
		c-8.243,3.091-15.635,4.635-22.177,4.635c-15.807,0-28.123-4.832-36.961-14.504c-7.731-8.398-11.6-18.762-11.6-31.085
		c0-13.019,4.375-23.853,13.133-32.513C352.311,163.464,365.608,158.632,382.518,158.632"/>
	<path d="M421.977,248.96h20.783l-0.14-84.745c0,0-3.758-0.081-9.929-0.562c-4.516-0.354-10.707-0.691-10.707-0.691L421.977,248.96z
		"/>
	<path fill="#F7323F" d="M75.274,229.634c3.625-10.776,12.884-17.838,12.884-17.838s7.41-5.427,12.261-8.726
		c4.899-3.338,12.433-8.104,12.433-8.104s15.886-9.438,19.567-11.969l0.055-0.045c2.285,0.428,4.736,0.764,7.185,1
		c0,0,6.755,0.334,8.533-3.483c1.897-3.808-3.673-4.765-3.673-4.765l-1.286-0.236c2.288-1.674,4.685-3.53,7.024-5.581
		c7.523-6.438,13.656-20.936,13.656-20.936l5.851-13.682c0,0,4.243-8.4,12.548-6.968c10.812,1.865,10.146,13.545,10.146,13.545
		c-2.563,18.6-17.17,29.903-22.302,33.096c-8.136,5.054-38.854,22.839-38.854,22.839s-16.776,10.729-27.424,21.791
		c-10.709,10.972-11.992,15.736-15.111,21.698c-3.172,6.005-3.512,7.105-7.585,7.438h-0.22
		C76.949,248.71,72.21,240.458,75.274,229.634"/>
	<path fill="#00953A" d="M177.882,233.653c-3.929-3.023-2.737-8.33-2.737-8.33s0.239-4.795-0.793-10.302
		c-1.043-5.504-2.464-8.593-2.464-8.593s-0.627-3.105-5.245-5.876c-4.601-2.716-9.105-3.472-10.128-6.952
		c-1.025-3.477,1.246-6.083,4.764-7.295c3.468-1.2,9.992-1.9,16.49,3.04c6.505,4.94,9.838,16.437,9.838,16.437
		s3.727,9.51,3.962,13.806c0,0,1.89,6.138-1.843,10.809c0,0-2.914,3.429-6.506,4.333
		C181.489,235.162,179.663,235.006,177.882,233.653"/>
	<path fill="#0071CE" d="M145.102,188.524c-1.483-0.585-2.942-1.209-4.364-1.851c-11.574-5.216-16.881-9.605-16.881-9.605
		s-16.577-11.41-20.424-29.149c-4.182-14.022,4.768-34.095,4.768-34.095s3.019-13.007,17.539-9.507
		c14.49,3.429,8.043,17.648,8.043,17.648c-1.996,4.232-6.133,26.36-6.133,26.36c-1.42,21.575,15.745,26.61,15.745,26.61l9.862,4.611
		c0,0,5.848,2.85,2.453,7.103c-2.82,3.643-8.57,2.418-10.176,1.989C145.292,188.576,145.102,188.524,145.102,188.524"/>
	<path fill="#FFD700" d="M101.099,245.678c0,0-2.899-2.277,0.473-9.979c4.511-10.407,14.986-19.028,14.986-19.028
		s24.774-15.545,30.922-17.695c6.188-2.143,9.951,0.362,9.951,0.362s9.35,6.385,9.871,20.259
		c0.517,13.869-9.117,18.933-9.117,18.933s-9.015,6.709-31.866,8.752c-11.152,1.99-17.39,1.904-20.867,1.179
		C101.156,247.562,101.099,245.678,101.099,245.678"/>
	<path d="M421.66,146.54c0-6.297,4.505-11.402,10.061-11.402c5.56,0,10.063,5.105,10.063,11.402c0,6.299-4.505,11.404-10.063,11.404
		C426.165,157.944,421.66,152.839,421.66,146.54"/>
</g>
</svg>
