<?xml version="1.0" encoding="utf-8"?>
<!-- Generator: Adobe Illustrator 17.0.0, SVG Export Plug-In . SVG Version: 6.00 Build 0)  -->
<!DOCTYPE svg PUBLIC "-//W3C//DTD SVG 1.1//EN" "http://www.w3.org/Graphics/SVG/1.1/DTD/svg11.dtd">
<svg version="1.1" id="Layer_1" xmlns="http://www.w3.org/2000/svg" xmlns:xlink="http://www.w3.org/1999/xlink" x="0px" y="0px"
	 width="1200px" height="1707.45px" viewBox="0 0 1200 1707.45" enable-background="new 0 0 1200 1707.45" xml:space="preserve">
<g id="grid">
</g>
<g id="_x32_4_Grid_Col_1_">
	<g id="_x32_4_Grid_Col">
		<g>
			<rect x="1130" y="0" opacity="0.1" fill="#E30613" enable-background="new    " width="60" height="1707.45"/>
		</g>
		<g>
			<rect x="1050" y="0" opacity="0.1" fill="#E30613" enable-background="new    " width="60" height="1707.45"/>
		</g>
		<g>
			<rect x="970" y="0" opacity="0.1" fill="#E30613" enable-background="new    " width="60" height="1707.45"/>
		</g>
		<g>
			<rect x="890" y="0" opacity="0.1" fill="#E30613" enable-background="new    " width="60" height="1707.45"/>
		</g>
		<g>
			<rect x="810" y="0" opacity="0.1" fill="#E30613" enable-background="new    " width="60" height="1707.45"/>
		</g>
		<g>
			<rect x="730" y="0" opacity="0.1" fill="#E30613" enable-background="new    " width="60" height="1707.45"/>
		</g>
		<g>
			<rect x="650" y="0" opacity="0.1" fill="#E30613" enable-background="new    " width="60" height="1707.45"/>
		</g>
		<g>
			<rect x="570" y="0" opacity="0.1" fill="#E30613" enable-background="new    " width="60" height="1707.45"/>
		</g>
		<g>
			<rect x="490" y="0" opacity="0.1" fill="#E30613" enable-background="new    " width="60" height="1707.45"/>
		</g>
		<g>
			<rect x="410" y="0" opacity="0.1" fill="#E30613" enable-background="new    " width="60" height="1707.45"/>
		</g>
		<g>
			<rect x="330" y="0" opacity="0.1" fill="#E30613" enable-background="new    " width="60" height="1707.45"/>
		</g>
		<g>
			<rect x="250" y="0" opacity="0.1" fill="#E30613" enable-background="new    " width="60" height="1707.45"/>
		</g>
		<g>
			<rect x="170" y="0" opacity="0.1" fill="#E30613" enable-background="new    " width="60" height="1707.45"/>
		</g>
		<g>
			<rect x="90" y="0" opacity="0.1" fill="#E30613" enable-background="new    " width="60" height="1707.45"/>
		</g>
		<g>
			<rect x="10" y="0" opacity="0.1" fill="#E30613" enable-background="new    " width="60" height="1707.45"/>
		</g>
	</g>
</g>
</svg>
